<?xml version="1.0" encoding="UTF-8"?>
<svg version="1.1" xmlns="http://www.w3.org/2000/svg" width="4505" height="4505">
<path d="M0 0 C124.74 0 249.48 0 378 0 C375.35032657 2.64967343 372.32547225 3.4846979 368.875 4.75 C326.37556985 20.90882212 285.15274797 41.57723155 251.5 72.625 C250.87037354 73.20507812 250.24074707 73.78515625 249.59204102 74.3828125 C249.01510498 74.929375 248.43816895 75.4759375 247.84375 76.0390625 C247.34037109 76.51553223 246.83699219 76.99200195 246.31835938 77.48291016 C244.72011202 79.3220785 243.83001648 80.6895587 243 83 C243.46092288 85.86850714 243.46092288 85.86850714 244.58618164 88.96972656 C244.98524216 90.18300125 245.38430267 91.39627594 245.79545593 92.64631653 C246.25009279 93.9778426 246.70500089 95.30927608 247.16015625 96.640625 C247.62269635 98.02903151 248.0838769 99.41789161 248.54377747 100.80717468 C249.52459133 103.76085926 250.51453003 106.71125907 251.51190186 109.65939331 C253.06277677 114.24397687 254.59303938 118.83526061 256.11962891 123.42797852 C258.13689586 129.49166656 260.1616593 135.55278596 262.19287109 141.61181641 C265.51844863 151.53533613 268.80529811 161.471313 272.05172729 171.42102051 C272.85957528 173.89035161 273.67557521 176.35687898 274.49243164 178.82324219 C274.97190412 180.2869826 275.45101604 181.75084119 275.9296875 183.21484375 C276.33429199 184.44323975 276.73889648 185.67163574 277.15576172 186.93725586 C278 190 278 190 278 194 C275.75009135 195.98016483 273.56984773 197.66630573 271.125 199.375 C269.65106373 200.44094061 268.17845724 201.50872187 266.70703125 202.578125 C265.93439941 203.13564453 265.16176758 203.69316406 264.36572266 204.26757812 C260.44901524 207.13578822 256.6331474 210.13070335 252.8125 213.125 C251.28798527 214.31539219 249.76324986 215.50550182 248.23828125 216.6953125 C247.51463379 217.26024414 246.79098633 217.82517578 246.04541016 218.40722656 C243.20672416 220.61772877 240.35440647 222.80982648 237.5 225 C231.54335661 229.57277675 225.61678277 234.18354614 219.69189453 238.79736328 C213.14780939 243.89094809 206.58079892 248.95394571 200 254 C209.51174817 255.93657686 219.11673081 257.11596706 228.7389679 258.3421154 C232.72906914 258.85191315 236.71785018 259.37170054 240.70674896 259.89080906 C248.11204087 260.85436774 255.51783562 261.81363179 262.92578125 262.7565918 C268.10109416 263.41574697 273.27467144 264.08726162 278.4473114 264.76706123 C280.41473689 265.02323912 282.38277262 265.27477462 284.35139465 265.52158928 C287.09335713 265.86587679 289.83282591 266.22585944 292.57226562 266.58959961 C293.38576477 266.68788055 294.19926392 266.7861615 295.03741455 266.88742065 C299.07465034 267.44090034 301.39221435 267.8332671 304 271 C305.20219421 273.90956116 305.20219421 273.90956116 306.3815918 277.52368164 C306.70994963 278.51732035 306.70994963 278.51732035 307.04494095 279.53103256 C307.77176649 281.73798152 308.48549369 283.94893915 309.19921875 286.16015625 C309.71104204 287.72361062 310.22363623 289.2868128 310.73695374 290.84977722 C312.11270541 295.04670286 313.47699473 299.24727265 314.838974 303.44868469 C315.97159631 306.93763556 317.11095173 310.42437043 318.25048256 313.91106987 C325.45886243 335.9673709 332.60779622 358.04374172 339.62744141 380.16088867 C342.66271033 389.72210687 345.73515587 399.26803725 348.89453125 408.7890625 C349.51929913 410.67933111 350.14397561 412.56962994 350.76855469 414.45996094 C351.92857322 417.96969253 353.10152237 421.47472066 354.28222656 424.97753906 C354.79413533 426.52391797 355.30555883 428.07045765 355.81640625 429.6171875 C356.05502884 430.31244537 356.29365143 431.00770325 356.539505 431.72402954 C358.51624973 437.77808654 358.51624973 437.77808654 357 441 C355.13582616 442.69470349 353.33987075 444.15328985 351.3125 445.625 C350.72944092 446.06030029 350.14638184 446.49560059 349.5456543 446.9440918 C347.70669362 448.30973452 345.8560088 449.65763771 344 451 C343.44054688 451.40524902 342.88109375 451.81049805 342.3046875 452.22802734 C339.47355442 454.2717096 336.63055265 456.29815021 333.78125 458.31640625 C322.4623905 466.33592589 311.26622072 474.52423862 300.10888672 482.76635742 C292.52397852 488.36385515 284.88444692 493.88384856 277.23388672 499.39111328 C273.48640231 502.09012118 269.74338799 504.79531494 266 507.5 C261.51389621 510.74131453 257.02695169 513.98141954 252.53515625 517.21484375 C244.82537027 522.76804624 237.14242369 528.35437205 229.5 534 C219.64592179 541.27942622 209.71425666 548.44830324 199.77050781 555.60449219 C191.31406964 561.6923875 182.88111091 567.80868741 174.5 574 C166.12051542 580.19011119 157.68892637 586.30474309 149.23388672 592.39111328 C145.48640231 595.09012118 141.74338799 597.79531494 138 600.5 C133.51389621 603.74131453 129.02695169 606.98141954 124.53515625 610.21484375 C116.82537027 615.76804624 109.14242369 621.35437205 101.5 627 C91.64592179 634.27942622 81.71425666 641.44830324 71.77050781 648.60449219 C63.31406964 654.6923875 54.88111091 660.80868741 46.5 667 C38.14567341 673.17152642 29.7389081 679.26682493 21.30859375 685.33398438 C18.83680195 687.11777322 16.37105198 688.90969169 13.90625 690.703125 C13.07488525 691.30697021 12.24352051 691.91081543 11.38696289 692.53295898 C9.78066889 693.69993566 8.17564192 694.86865876 6.57202148 696.03930664 C5.85602783 696.55871826 5.14003418 697.07812988 4.40234375 697.61328125 C3.76804443 698.07516846 3.13374512 698.53705566 2.48022461 699.01293945 C1 700 1 700 0 700 C0 469 0 238 0 0 Z M111 112 C111 144.34 111 176.68 111 210 C130.14 210 149.28 210 169 210 C165.54233814 188.4351089 162.00145701 166.8856565 158.36810303 145.34976196 C157.91327661 142.65368858 157.45994583 139.95737027 157.00787354 137.26083374 C156.36716261 133.44016423 155.72100369 129.62042747 155.07421875 125.80078125 C154.87965591 124.63781525 154.68509308 123.47484924 154.4846344 122.27664185 C154.30367722 121.21379974 154.12272003 120.15095764 153.9362793 119.0559082 C153.77894821 118.12382034 153.62161713 117.19173248 153.45951843 116.23139954 C153.09463945 113.97459902 153.09463945 113.97459902 152 112 C138.47 112 124.94 112 111 112 Z M111 352 C111 384.34 111 416.68 111 450 C124.53 450 138.06 450 152 450 C154.54905383 438.99990957 154.54905383 438.99990957 156.62573242 427.93676758 C156.76272049 427.12853546 156.89970856 426.32030334 157.04084778 425.48757935 C157.48285441 422.87385382 157.91929834 420.25923644 158.35546875 417.64453125 C158.66476764 415.8069721 158.97436877 413.96946381 159.28425598 412.13200378 C159.92784273 408.31097876 160.56884818 404.48953344 161.20776367 400.66772461 C162.02773937 395.76325071 162.85267895 390.85962806 163.67931652 385.95627308 C164.31635335 382.17596795 164.95162467 378.39536798 165.58626747 374.61466026 C165.89013127 372.80483668 166.1943583 370.99507404 166.49895287 369.18537331 C166.9218005 366.67049112 167.3424644 364.15525389 167.76245117 361.63989258 C167.88864838 360.89139542 168.01484558 360.14289825 168.14486694 359.37171936 C168.77782099 355.70561038 168.77782099 355.70561038 169 352 C149.86 352 130.72 352 111 352 Z " fill="#00CE00" transform="translate(1492,1848)"/>
<path d="M0 0 C131.01 0 262.02 0 397 0 C397 73.92 397 147.84 397 224 C365.98 224 334.96 224 303 224 C303 204.53 303 185.06 303 165 C292.77 165 282.54 165 272 165 C272 203.94 272 242.88 272 283 C313.25 283 354.5 283 397 283 C397 420.61 397 558.22 397 700 C389.13019418 695.50296811 389.13019418 695.50296811 385.79296875 693.00390625 C385.05103271 692.45210693 384.30909668 691.90030762 383.54467773 691.33178711 C382.76680908 690.74792236 381.98894043 690.16405762 381.1875 689.5625 C379.49533265 688.3039598 377.80261109 687.04616446 376.109375 685.7890625 C375.25666016 685.15516602 374.40394531 684.52126953 373.52539062 683.86816406 C369.68489079 681.02714466 365.81388565 678.22926569 361.9375 675.4375 C361.19975342 674.90584229 360.46200684 674.37418457 359.7019043 673.82641602 C358.21275768 672.75363889 356.72341901 671.68112828 355.23388672 670.60888672 C350.73476831 667.36853805 346.24175881 664.11972298 341.74755859 660.87255859 C338.012055 658.17401978 334.2751852 655.47742047 330.53515625 652.78515625 C322.02079319 646.65243321 313.54783798 640.46767211 305.10791016 634.23291016 C296.78497251 628.09080366 288.39567785 622.04209317 280 616 C269.99449602 608.79936792 260.02311522 601.55749214 250.10791016 594.23291016 C242.5233116 588.63567826 234.8841167 583.11591373 227.23388672 577.60888672 C222.73476831 574.36853805 218.24175881 571.11972298 213.74755859 567.87255859 C210.012055 565.17401978 206.2751852 562.47742047 202.53515625 559.78515625 C194.02079319 553.65243321 185.54783798 547.46767211 177.10791016 541.23291016 C168.78497251 535.09080366 160.39567785 529.04209317 152 523 C141.99449602 515.79936792 132.02311522 508.55749214 122.10791016 501.23291016 C114.5233116 495.63567826 106.8841167 490.11591373 99.23388672 484.60888672 C94.73476831 481.36853805 90.24175881 478.11972298 85.74755859 474.87255859 C82.012055 472.17401978 78.2751852 469.47742047 74.53515625 466.78515625 C62.28189838 457.95949528 50.07800547 449.06453144 38 440 C40.26254277 431.23636081 43.00698489 422.65408012 45.8515625 414.06640625 C46.31598948 412.65690849 46.78012592 411.24731498 47.24398804 409.83763123 C48.45446529 406.16093025 49.66801505 402.48525191 50.88250732 398.80987549 C52.83351699 392.90456297 54.7807368 386.99800304 56.72611618 381.09083366 C57.40335406 379.03639095 58.08251194 376.98259026 58.76187134 374.92884827 C59.17254852 373.68332687 59.58322571 372.43780548 60.00634766 371.15454102 C60.36814117 370.05964859 60.72993469 368.96475616 61.10269165 367.83668518 C61.81596811 365.581785 62.42639745 363.29441022 63 361 C96.66 361 130.32 361 165 361 C165 380.8 165 400.6 165 421 C199.98 421 234.96 421 271 421 C271 392.95 271 364.9 271 336 C205.33 336 139.66 336 72 336 C73.89478665 329.05244895 75.82126424 322.18984968 78.01953125 315.34375 C78.31027023 314.43270508 78.60100922 313.52166016 78.90055847 312.58300781 C79.86839498 309.55443088 80.84021897 306.52715279 81.8125 303.5 C82.15369873 302.43499268 82.49489746 301.36998535 82.84643555 300.27270508 C89.6002328 279.19745367 96.50907692 258.17391107 103.43130493 237.15356445 C109.68479702 218.16244 115.87538968 199.15412421 121.9213562 180.09564209 C125.90633591 167.53600095 129.97576015 155.00722167 134.13267899 142.50357819 C134.90696024 140.17367966 135.67994148 137.84335396 136.45248413 135.51287842 C136.96635789 133.9630088 137.48024338 132.41314308 137.99414062 130.86328125 C138.2482049 130.09696003 138.50226917 129.33063881 138.76403236 128.54109573 C140.28125337 123.96833986 141.80819224 119.3989665 143.3420496 114.83176613 C144.29374568 111.99115355 145.23691717 109.14776231 146.17794609 106.30360031 C146.62094615 104.97102329 147.06766374 103.63967581 147.51826668 102.30965042 C148.13770643 100.47998807 148.74316359 98.64560958 149.34790039 96.81103516 C149.69268936 95.78048004 150.03747833 94.74992493 150.39271545 93.68814087 C151.02001763 90.91139212 151.1002501 89.5969581 150 87 C148.06696683 85.04306534 146.17222856 83.30903843 144.0625 81.5625 C143.44205811 81.04171875 142.82161621 80.5209375 142.18237305 79.984375 C103.21007972 47.75663916 56.15863394 23.75651808 9.265625 5.42602539 C8.19441406 5.00313232 7.12320312 4.58023926 6.01953125 4.14453125 C5.07182861 3.77690674 4.12412598 3.40928223 3.14770508 3.03051758 C1 2 1 2 0 0 Z " fill="#FEFEFE" transform="translate(1064,1848)"/>
<path d="M0 0 C134.37142857 0 134.37142857 0 151.3125 11.1875 C166.1269704 26.69101553 167.3090937 47.12015815 167.2746582 67.43823242 C167.2790155 69.15476704 167.284202 70.87129973 167.29014587 72.58782959 C167.30344025 77.21417612 167.3041251 81.84044047 167.30158257 86.46680236 C167.30050596 90.34784728 167.30541395 94.22887604 167.310188 98.10991746 C167.32125095 107.27812481 167.32173926 116.44629118 167.31567383 125.61450195 C167.30964155 135.02741845 167.32193354 144.44018519 167.3432439 153.85307616 C167.36094388 161.97415649 167.36684795 170.09518952 167.36360615 178.21628839 C167.36180589 183.04907676 167.36430199 187.88175838 167.37832069 192.71452904 C167.39103139 197.26603731 167.38883189 201.81731486 167.37590981 206.36882019 C167.37357267 208.02381791 167.37617362 209.67883255 167.38453293 211.33381081 C167.45213548 225.77784189 166.19271985 240.39535566 161.375 254.125 C161.12411621 254.85525391 160.87323242 255.58550781 160.61474609 256.33789062 C156.22941143 268.47544973 149.52783634 279.3335697 141 289 C141.35191406 289.44988281 141.70382813 289.89976562 142.06640625 290.36328125 C153.11733405 304.76122635 161.4771771 320.09845069 165 338 C165.25162541 339.26485922 165.25162541 339.26485922 165.50833416 340.55527115 C167.26456706 350.52090143 167.28984065 360.30083183 167.2746582 370.38183594 C167.27901387 372.30688676 167.28419984 374.23193585 167.29014587 376.15698242 C167.30345651 381.35142304 167.30412334 386.54579054 167.30158257 391.74024487 C167.30050726 396.09359572 167.30541058 400.44693212 167.310188 404.80027986 C167.32125616 415.08073158 167.32173604 425.36114677 167.31567383 435.64160156 C167.30963848 446.20764713 167.32194015 456.77355938 167.3432439 467.3395822 C167.36092323 476.44662497 167.36685123 485.55362555 167.36360615 494.66068482 C167.36180293 500.08420838 167.36433257 505.50763687 167.37832069 510.93114471 C167.39099763 516.03666527 167.38886272 521.14197977 167.37590981 526.24749756 C167.37356564 528.10770999 167.37619989 529.96793738 167.38453293 531.82813263 C167.46197156 550.47812985 166.74962191 570.85602947 153 585 C115.47720348 616.91014293 25.41923005 599 0 599 C0 401.33 0 203.66 0 0 Z M66 68 C66 128.39 66 188.78 66 251 C81.4423037 251.66501258 81.4423037 251.66501258 94.375 245.625 C101.69393186 238.30606814 102.22233699 230.01086085 102.29327393 220.11532593 C102.29191437 218.19268417 102.29191437 218.19268417 102.29052734 216.23120117 C102.29652077 214.84886821 102.30332817 213.46653857 102.31088257 212.08421326 C102.32846674 208.34851225 102.33323472 204.612903 102.33451414 200.8771646 C102.33594058 198.53792044 102.34021946 196.19869926 102.34550858 193.85946083 C102.36398358 185.68355465 102.37218234 177.50771347 102.37060547 169.33178711 C102.36940467 161.73479036 102.39050135 154.13807797 102.4220928 146.54115313 C102.44832278 139.99818542 102.45896996 133.45531022 102.45769465 126.91229039 C102.457187 123.01353485 102.4627603 119.1150323 102.48405075 115.21632957 C102.5035472 111.54634281 102.50348084 107.87684747 102.48901749 104.20684242 C102.48596072 102.23495704 102.5025255 100.26307099 102.51989746 98.29125977 C102.45710763 89.32169897 101.36215859 81.13804134 95.5625 74 C85.0638967 65.80596816 82.60957868 68 66 68 Z M66 328 C66 395.65 66 463.3 66 533 C81.54711997 533.39135483 81.54711997 533.39135483 95 527 C103.21581308 518.45816259 102.29882194 507.29210578 102.29052734 496.21166992 C102.29651866 494.61259143 102.30332559 493.01351583 102.31088257 491.41444397 C102.328488 487.08785522 102.33323563 482.76134568 102.33451414 478.43472457 C102.33593935 475.72696032 102.34021592 473.01921597 102.34550858 470.31145668 C102.3639905 460.85174921 102.37218146 451.39209797 102.37060547 441.93237305 C102.36940443 433.13569789 102.39050404 424.33926823 102.4220928 415.54265517 C102.44830317 407.97209693 102.45897078 400.40161864 102.45769465 392.83101541 C102.45718644 388.31746895 102.46279163 383.80414085 102.48405075 379.29063988 C102.50351376 375.04284821 102.50350299 370.79548144 102.48901749 366.54767418 C102.48693827 364.99616368 102.49157691 363.444626 102.5037384 361.89316177 C102.57363571 352.35199742 102.58797598 342.43445481 96.12103844 334.77437115 C87.35814457 326.17149769 78.21099963 328 66 328 Z " fill="#00CE00" transform="translate(2913,1936)"/>
<path d="M0 0 C20.08901606 20.70974409 24.9644125 44.92744882 24.89477539 72.87353516 C24.89449285 74.47104897 24.89465256 76.06856292 24.8952179 77.66607666 C24.89550325 81.97527596 24.88964892 86.28444707 24.88264394 90.59363985 C24.87636675 95.1072961 24.87580316 99.62095309 24.87461853 104.13461304 C24.87151804 112.66953432 24.86332202 121.20444269 24.85326904 129.73935831 C24.84206798 139.4612898 24.83658741 149.18322193 24.83157361 158.90515828 C24.82113827 178.89251014 24.80280881 198.87984433 24.78125 218.8671875 C2.34125 218.8671875 -20.09875 218.8671875 -43.21875 218.8671875 C-43.2280957 213.72374756 -43.23744141 208.58030762 -43.24707031 203.28100586 C-43.28081257 186.30159022 -43.3361448 169.3222959 -43.40265274 152.34297848 C-43.44245436 142.04676491 -43.47484117 131.7506279 -43.48974609 121.4543457 C-43.50275677 112.47962351 -43.52970655 103.50506968 -43.57336307 94.5304423 C-43.59599097 89.7788454 -43.61165988 85.02745627 -43.61063385 80.2758007 C-43.60988803 75.80153703 -43.62780757 71.32773288 -43.65991783 66.8535881 C-43.66842243 65.21335381 -43.67016294 63.57306802 -43.66455269 61.93282127 C-43.65789931 59.68827666 -43.6758627 57.44518844 -43.69976807 55.20079041 C-43.70345524 53.94623015 -43.70714241 52.6916699 -43.71094131 51.39909267 C-44.3414962 47.01346453 -45.89404942 44.60862313 -48.21875 40.8671875 C-48.21875 40.2071875 -48.21875 39.5471875 -48.21875 38.8671875 C-49.54133472 38.17944345 -50.87861503 37.52007377 -52.21875 36.8671875 C-53.270625 36.3309375 -54.3225 35.7946875 -55.40625 35.2421875 C-61.05034822 32.87335827 -66.23854283 33.20711844 -71.96875 35.1171875 C-77.66423568 38.18398748 -80.74251127 40.80040262 -83.21875 46.8671875 C-84.24574114 50.92484533 -84.34926684 54.76004884 -84.35919189 58.93768311 C-84.36216302 59.63797614 -84.36513414 60.33826918 -84.3681953 61.05978322 C-84.37684869 63.40021926 -84.37838769 65.74060394 -84.37988281 68.08105469 C-84.38451337 69.76175037 -84.38953835 71.44244501 -84.39492798 73.12313843 C-84.40803113 77.68528423 -84.41449287 82.24741532 -84.41893864 86.80957699 C-84.42187274 89.66186406 -84.42597819 92.51414713 -84.43044281 95.36643219 C-84.44411227 104.29651265 -84.45378162 113.22658395 -84.4576447 122.15667415 C-84.46212418 132.45414412 -84.47966931 142.75148127 -84.5086453 153.04891086 C-84.53028324 161.01596813 -84.54035011 168.9829881 -84.54168582 176.95007443 C-84.54273233 181.70501647 -84.54860746 186.45983355 -84.56650543 191.21474457 C-84.58302266 195.68977495 -84.58512394 200.16458693 -84.57636642 204.63963699 C-84.575598 206.27745017 -84.57991297 207.91527526 -84.58982468 209.55305862 C-84.64386429 219.04274025 -84.65577672 227.41535201 -79.40625 235.7421875 C-74.86072622 240.15783917 -70.3670566 241.23907902 -64.16015625 241.45703125 C-62.78970987 241.52010255 -61.41926729 241.5832564 -60.04882812 241.64648438 C-57.93023446 241.72781002 -55.8115548 241.80365668 -53.69262695 241.87573242 C-31.89879634 242.66865526 -13.52310398 248.78822665 1.78125 264.8671875 C21.65487395 286.51215619 24.92528312 317.70728125 24.94238281 345.66088867 C24.94701998 347.43948467 24.95204583 349.21807969 24.95742798 350.99667358 C24.9704657 355.80066195 24.97697972 360.6046364 24.98143864 365.40863967 C24.98438281 368.41813766 24.98849002 371.42763196 24.99294281 374.43712807 C25.00659377 383.87711129 25.01627267 393.31708594 25.0201447 402.75707835 C25.02462248 413.6102101 25.04216755 424.46321573 25.0711453 435.31630915 C25.0928373 443.73624682 25.10285295 452.15614919 25.10418582 460.57611448 C25.10522828 465.59108273 25.11101639 470.60593205 25.12900543 475.62087059 C25.14561729 480.34305218 25.14757876 485.06502704 25.13886642 489.78722763 C25.13810307 491.50757086 25.14234457 493.22792583 25.15232468 494.94824028 C25.30422488 522.79346456 17.4872162 544.88090883 -2.21875 564.8671875 C-2.94964844 565.61097656 -3.68054687 566.35476563 -4.43359375 567.12109375 C-21.11660128 582.9963579 -44.22009075 589.42679636 -66.78417969 589.21850586 C-90.12936935 588.5745161 -109.4011551 580.0120786 -126.21875 563.8671875 C-127.12625 563.0009375 -128.03375 562.1346875 -128.96875 561.2421875 C-146.414967 542.82673622 -152.91315534 521.24058882 -152.67285156 496.33178711 C-152.67171951 494.65442431 -152.6723639 492.97705954 -152.67462158 491.29969788 C-152.67575571 486.80480037 -152.65246072 482.31034158 -152.62432575 477.81554484 C-152.5990918 473.09641877 -152.59695295 468.37727945 -152.59222412 463.65809631 C-152.57985831 454.7479095 -152.54712452 445.83792216 -152.50682616 436.92782265 C-152.4619078 426.77287361 -152.44007127 416.61791437 -152.42004442 406.46289051 C-152.37838517 385.59752057 -152.30511411 364.73242359 -152.21875 343.8671875 C-130.10875 343.8671875 -107.99875 343.8671875 -85.21875 343.8671875 C-85.20416748 348.87898193 -85.18958496 353.89077637 -85.17456055 359.05444336 C-85.12423063 375.61074665 -85.05778819 392.16695629 -84.98303509 408.72316647 C-84.93810458 418.76147854 -84.89868356 428.79975536 -84.87231445 438.83813477 C-84.84931217 447.58945255 -84.81588918 456.34065849 -84.77004844 465.09188753 C-84.74614633 469.72390776 -84.72739781 474.35581742 -84.72113609 478.98789787 C-84.71507161 483.35212023 -84.69502263 487.7160598 -84.66447449 492.08017731 C-84.65571608 493.67764634 -84.65196711 495.27515237 -84.65374184 496.87264442 C-84.93435325 510.36770661 -84.93435325 510.36770661 -79.28125 522.2421875 C-78.600625 522.7784375 -77.92 523.3146875 -77.21875 523.8671875 C-76.538125 524.4240625 -75.8575 524.9809375 -75.15625 525.5546875 C-70.1386565 528.95370245 -64.02603799 528.39713013 -58.21875 527.8671875 C-52.85610545 526.27825578 -49.23913591 523.63010374 -46.21875 518.8671875 C-44.1505573 514.69332161 -43.93096616 510.90871927 -43.95132446 506.33439636 C-43.94452779 505.20939451 -43.94452779 505.20939451 -43.93759382 504.06166536 C-43.92495165 501.55301018 -43.92657006 499.04457215 -43.92822266 496.53588867 C-43.92223727 494.73534364 -43.91543169 492.93480118 -43.90786743 491.13426208 C-43.89020072 486.24573344 -43.88551175 481.35727482 -43.88423586 476.46871734 C-43.88281401 473.41341089 -43.87854377 470.35812223 -43.87324142 467.30282021 C-43.85473852 456.64058935 -43.84657109 445.97840849 -43.84814453 435.31616211 C-43.84934581 425.38285912 -43.82824673 415.44977345 -43.7966572 405.51652545 C-43.7704904 396.98387576 -43.75977742 388.45129703 -43.76105535 379.91860753 C-43.76156489 374.82441113 -43.75588616 369.73040784 -43.73469925 364.63625145 C-43.71531027 359.84352893 -43.71519695 355.05118361 -43.72973251 350.25844765 C-43.73182093 348.5024981 -43.72711776 346.7465249 -43.7150116 344.99061584 C-43.41572351 332.79866838 -43.41572351 332.79866838 -48.21875 321.8671875 C-53.71659612 317.30514497 -58.36558062 316.82878435 -65.34692383 316.57714844 C-89.05705908 315.70484406 -108.02880329 308.30974522 -125.21875 291.8671875 C-126.25128906 290.94679688 -126.25128906 290.94679688 -127.3046875 290.0078125 C-141.33402566 277.032061 -149.94710147 257.57707363 -152.21875 238.8671875 C-152.31097268 236.23195789 -152.36244878 233.62355072 -152.35919189 230.98913574 C-152.36216302 230.22603041 -152.36513414 229.46292508 -152.3681953 228.67669535 C-152.37682397 226.1353637 -152.37838559 223.59407948 -152.37988281 221.05273438 C-152.38451523 219.22384543 -152.38954046 217.39495744 -152.39492798 215.56607056 C-152.40801581 210.60695874 -152.41449023 205.64786044 -152.41893864 200.68873405 C-152.42187609 197.58478999 -152.42598222 194.48084957 -152.43044281 191.37690735 C-152.44411015 181.64912099 -152.45377972 171.92134302 -152.4576447 162.19354773 C-152.46211934 150.99511436 -152.47964288 139.79680343 -152.5086453 128.59840727 C-152.5303271 119.92294173 -152.54035249 111.24751047 -152.54168582 102.57201815 C-152.54272949 97.39996913 -152.54854304 92.22803531 -152.56650543 87.05601501 C-152.58309814 82.18368947 -152.58508779 77.31156432 -152.57636642 72.43922043 C-152.57560192 70.66202123 -152.5798602 68.88481075 -152.58982468 67.10763931 C-152.72760396 40.97847946 -145.81659279 19.02659925 -127.21875 -0.1328125 C-126.60644531 -0.81859375 -125.99414062 -1.504375 -125.36328125 -2.2109375 C-111.59892742 -17.11987512 -90.25807309 -25.89879615 -70.171875 -27.1015625 C-42.93481648 -27.38978534 -19.74228204 -19.12739084 0 0 Z " fill="#FEFEFE" transform="translate(2114.21875,1955.1328125)"/>
<path d="M0 0 C1.06605469 0.32871094 2.13210937 0.65742188 3.23046875 0.99609375 C25.5233241 8.69338789 43.88622721 26.30502991 54.27734375 47.23828125 C61.38259672 62.30664934 62.30603423 78.33279584 62.24050903 94.71725464 C62.24138311 96.36275903 62.24313778 98.00826315 62.24568737 99.6537658 C62.25012532 104.13719449 62.24220658 108.62052627 62.23213124 113.10394263 C62.22344737 117.9530941 62.22642038 122.80224065 62.22793579 127.65139771 C62.22898153 136.04021359 62.2227375 144.42899822 62.21146011 152.81780624 C62.19516583 164.94642362 62.18999309 177.07502598 62.18748413 189.20365311 C62.18311318 208.88431245 62.16982039 228.56495516 62.15087891 248.24560547 C62.13250456 267.35693275 62.11835567 286.46825551 62.10986328 305.57958984 C62.10933783 306.75876196 62.10881239 307.93793408 62.10827102 309.15283869 C62.10566083 315.068742 62.10313344 320.98464534 62.10064721 326.9005487 C62.0799334 375.93371062 62.04472425 424.9668545 62 474 C61.38993607 474.00142502 60.77987213 474.00285004 60.15132141 474.00431824 C53.74195673 474.02416355 47.33352554 474.07875088 40.92456055 474.15258789 C38.5398633 474.17563701 36.15506614 474.19013253 33.77026367 474.19555664 C15.27879971 474.12333909 15.27879971 474.12333909 -2 480 C-22.50058814 486.90984057 -46.38396592 483.64146713 -65.69140625 474.7578125 C-88.10366262 462.8504744 -103.99599527 444.08890926 -111.9921875 420.15625 C-114.95230674 409.12893049 -115.29974692 397.8130864 -115.29052734 386.46777344 C-115.29653024 384.96783622 -115.30333974 383.46790206 -115.31088257 381.9679718 C-115.32836932 377.93671215 -115.33323049 373.90553766 -115.33451414 369.87424374 C-115.33594604 367.3442874 -115.340235 364.81435202 -115.34550858 362.28440094 C-115.36395049 353.42607778 -115.37218642 344.56781438 -115.37060547 335.70947266 C-115.36940518 327.50356282 -115.39050048 319.29791645 -115.4220928 311.0920732 C-115.4483959 304.00280855 -115.45896695 296.91362923 -115.45769465 289.82431626 C-115.45718919 285.60964792 -115.46263887 281.39521431 -115.48405075 277.1805954 C-115.64079947 244.01262418 -111.76023276 217.21768793 -87.44873047 192.45703125 C-67.50948298 172.40353799 -42.33773521 159.52661624 -17.953125 145.68505859 C-15.55113972 144.31448135 -13.1649931 142.92133472 -10.78125 141.51953125 C-8 140 -8 140 -6 140 C-6.03811798 131.12414343 -6.09756774 122.24875606 -6.18390274 113.37323666 C-6.22333341 109.2514943 -6.25554329 105.12996417 -6.27099609 101.00805664 C-6.28619208 97.02665613 -6.32068882 93.04583923 -6.36830902 89.06469917 C-6.38309269 87.54939421 -6.39103928 86.03400591 -6.39188385 84.51862907 C-6.40283029 74.72214752 -6.61199497 68.38800503 -13.8125 61.1875 C-19.66203142 57.17311569 -24.74792559 56.59306617 -31.62890625 57.44140625 C-35.09890406 58.25888514 -37.1999833 59.82998706 -40 62 C-40.66 62 -41.32 62 -42 62 C-42.68774405 63.32258472 -43.34711373 64.65986503 -44 66 C-44.51057449 67.04120499 -45.02114899 68.08240997 -45.54719543 69.15516663 C-47.19979421 73.05161634 -47.44092054 76.76062565 -47.43237305 80.95483398 C-47.4425647 81.71663467 -47.45275635 82.47843536 -47.46325684 83.26332092 C-47.49322329 85.75765493 -47.50262741 88.2516039 -47.51171875 90.74609375 C-47.52857761 92.48488118 -47.54672948 94.22365652 -47.56611633 95.9624176 C-47.61349147 100.52106953 -47.64338141 105.07967239 -47.66955566 109.63848877 C-47.70468326 115.11779697 -47.76166033 120.59691681 -47.81494904 126.07607269 C-47.8933165 134.38402414 -47.94403257 142.69173149 -48 151 C-70.11 151 -92.22 151 -115 151 C-115.12032643 132.67473067 -115.12032643 132.67473067 -115.14648438 124.765625 C-115.16430573 119.40290236 -115.18521381 114.04033571 -115.22631836 108.67773438 C-115.25930407 104.34642853 -115.27693412 100.01529033 -115.28463173 95.68386841 C-115.29010585 94.0447425 -115.30079143 92.40562406 -115.31719017 90.76657104 C-115.44935407 76.98838748 -114.51038092 63.19362186 -108.9375 50.375 C-108.63859863 49.67536133 -108.33969727 48.97572266 -108.03173828 48.25488281 C-98.25238244 26.44053822 -79.46832615 9.94724385 -57.453125 1.21875 C-39.75916582 -5.02617677 -17.96728178 -5.75605525 0 0 Z M-32.18359375 233.98046875 C-43.82606837 246.92489752 -48.30237296 259.78179273 -48.29052734 276.88647461 C-48.2965185 278.29323175 -48.30332539 279.69998563 -48.31088257 281.10673523 C-48.32848704 284.91253935 -48.3332355 288.71825344 -48.33451414 292.52409434 C-48.3359391 294.9050195 -48.34021515 297.285922 -48.34550858 299.66684151 C-48.36398831 307.98192922 -48.3721815 316.29695297 -48.37060547 324.61206055 C-48.36940363 332.34939899 -48.39051939 340.08645869 -48.4220928 347.82372659 C-48.44828052 354.47957729 -48.45897177 361.13533705 -48.45769465 367.79123884 C-48.45718588 371.76089361 -48.46282207 375.73030029 -48.48405075 379.69990349 C-48.5034763 383.43388586 -48.50352863 387.16738448 -48.48901749 390.90138435 C-48.4859444 392.91560343 -48.50257427 394.9298228 -48.51989746 396.94396973 C-48.46391819 405.03505763 -47.73262905 410.75986436 -42.21875 417.0234375 C-41.36796875 417.69246094 -41.36796875 417.69246094 -40.5 418.375 C-39.64921875 419.06722656 -39.64921875 419.06722656 -38.78125 419.7734375 C-34.76293952 422.540432 -31.99058466 423.27485793 -27.0625 423.25 C-26.04285156 423.25515625 -25.02320312 423.2603125 -23.97265625 423.265625 C-18.23272487 422.75272706 -13.88542695 420.22086495 -10 416 C-6.57541299 410.78957906 -5.41817487 406.01513244 -5.51898193 399.78686523 C-5.51385538 398.60667439 -5.51385538 398.60667439 -5.50862527 397.4026413 C-5.50207915 394.78757845 -5.52396723 392.17356072 -5.54589844 389.55859375 C-5.54702763 387.67566451 -5.54639166 385.79273351 -5.54412842 383.9098053 C-5.54298314 378.81317878 -5.56646249 373.71693062 -5.59442425 368.62039185 C-5.6194688 363.2886142 -5.62178231 357.95682739 -5.62652588 352.625 C-5.63894666 342.5351739 -5.67175621 332.44552165 -5.71192384 322.35577202 C-5.75666941 310.86610777 -5.77863561 299.37643512 -5.79870558 287.8867054 C-5.84048956 264.25770731 -5.91082425 240.62886341 -6 217 C-13.44362358 217 -27.0637133 229.06097501 -32.18359375 233.98046875 Z " fill="#FEFEFE" transform="translate(2748,2061)"/>
<path d="M0 0 C1.05832031 0.36222656 2.11664062 0.72445312 3.20703125 1.09765625 C24.60559573 9.20109209 41.57090029 26.79240784 51.5078125 47.078125 C56.490856 58.47646401 59.13451648 70.23172979 59.11352539 82.67944336 C59.11367142 83.41198334 59.11381744 84.14452332 59.1139679 84.89926147 C59.11327686 87.29615343 59.10552276 89.69296554 59.09765625 92.08984375 C59.09578919 93.76135719 59.09436665 95.43287119 59.09336853 97.10438538 C59.08956603 101.48554009 59.07975529 105.86666121 59.06866455 110.24780273 C59.05659434 115.51423702 59.05203739 120.78068259 59.04621124 126.04712677 C59.03654218 134.03144115 59.0173698 142.01568194 59 150 C36.89 150 14.78 150 -8 150 C-8.04898438 144.76253906 -8.09796875 139.52507813 -8.1484375 134.12890625 C-8.18385112 130.79750751 -8.21982667 127.46613361 -8.2578125 124.13476562 C-8.31796251 118.85493653 -8.37610727 113.57514192 -8.421875 108.29516602 C-8.45893262 104.03511239 -8.50534624 99.77525129 -8.55806351 95.51536369 C-8.57649925 93.89563332 -8.59164649 92.27586185 -8.60334396 90.6560688 C-8.08955752 75.89103681 -8.08955752 75.89103681 -14 63 C-14 62.34 -14 61.68 -14 61 C-21.69277506 57.05012222 -28.35866809 54.84704017 -37 57 C-43.33529272 60.22741327 -47.77542346 65.2111626 -50 72 C-50.29895545 74.79971701 -50.29895545 74.79971701 -50.25726891 77.80909443 C-50.26694224 79.56180809 -50.26694224 79.56180809 -50.276811 81.34993011 C-50.2737138 82.62948567 -50.2706166 83.90904124 -50.26742554 85.22737122 C-50.27116253 86.60367081 -50.27576425 87.97996828 -50.28115618 89.35626239 C-50.29339562 93.13767073 -50.29312461 96.91899066 -50.29076743 100.7004143 C-50.2903595 104.7789227 -50.30139613 108.85740266 -50.31088257 112.93589783 C-50.32749874 120.92630454 -50.33299239 128.91668175 -50.33410732 136.90710429 C-50.33505751 143.40196324 -50.33916634 149.89681245 -50.34550858 156.39166832 C-50.36312272 174.8043417 -50.37234718 193.21699177 -50.37084763 211.62967364 C-50.37072776 213.11876522 -50.37072776 213.11876522 -50.37060547 214.63793945 C-50.37048283 216.12884847 -50.37048283 216.12884847 -50.37035771 217.64987686 C-50.36954477 233.75877857 -50.38868385 249.86758678 -50.4168822 265.97646145 C-50.44560522 282.51552654 -50.45942282 299.05454602 -50.45769465 315.59363669 C-50.45703054 324.87964716 -50.46253186 334.16555961 -50.48405075 343.45154762 C-50.5022549 351.35783035 -50.50661621 359.26397063 -50.4930319 367.17026524 C-50.48649833 371.20369653 -50.4863989 375.2368545 -50.5037384 379.27025986 C-50.5194573 382.96470737 -50.51661803 386.65866456 -50.49917014 390.35310002 C-50.49464513 392.31836119 -50.5097669 394.28363748 -50.52564943 396.24883968 C-50.46694459 403.75672289 -49.9946216 409.82466727 -44.5527128 415.51276046 C-38.82154865 420.5408754 -34.5205525 421.45311986 -27.046875 421.31640625 C-21.32113743 420.72181043 -17.55375297 418.63552944 -13.625 414.5 C-9.17470038 407.6533852 -8.85985342 401.033615 -8.79467773 392.95336914 C-8.78477814 392.18181488 -8.77487854 391.41026062 -8.76467896 390.61532593 C-8.73332573 388.08863292 -8.70841114 385.56192117 -8.68359375 383.03515625 C-8.66300156 381.27395668 -8.64200452 379.51276179 -8.62062073 377.75157166 C-8.56563388 373.13373634 -8.51612223 368.51585817 -8.46777344 363.89794922 C-8.40851566 358.34778952 -8.34241735 352.79770752 -8.27747345 347.247612 C-8.17975853 338.83178911 -8.09070121 330.41591456 -8 322 C14.11 322 36.22 322 59 322 C59.12032643 341.28342422 59.12032643 341.28342422 59.14648438 349.60742188 C59.16430424 355.25098304 59.18520823 360.89439594 59.22631836 366.5378418 C59.25930922 371.09608631 59.27693519 375.65417148 59.28463173 380.21252632 C59.29010494 381.93734808 59.30078861 383.66216275 59.31719017 385.38691521 C59.56897114 413.00350661 52.57688454 436.75500543 33 457 C15.20568108 474.66892654 -6.8533245 482.29423374 -31.7409668 482.24438477 C-56.69689921 481.91491219 -77.65909117 471.71814966 -95 454 C-112.07042863 435.90642265 -118.33569117 413.67314163 -118.26069641 389.16777039 C-118.26372402 387.81104267 -118.26761652 386.45431666 -118.27228898 385.09759361 C-118.28249937 381.40251727 -118.28040509 377.70753872 -118.27610838 374.01245463 C-118.2736284 370.01437583 -118.28267104 366.01631981 -118.29014587 362.01824951 C-118.30285982 354.19823568 -118.30469069 346.37825624 -118.30234561 338.55823382 C-118.30055855 332.19804223 -118.3023204 325.83786102 -118.30657005 319.47767067 C-118.30716524 318.57053354 -118.30776043 317.66339642 -118.30837366 316.72877029 C-118.30958548 314.88558167 -118.31079961 313.04239304 -118.31201603 311.19920442 C-118.32287889 293.9346871 -118.32073505 276.67018934 -118.31463119 259.40567092 C-118.30946344 243.63498481 -118.32071597 227.86436049 -118.33972941 212.0936866 C-118.35913306 195.87416044 -118.36735936 179.65466348 -118.36360615 163.43512565 C-118.36169791 154.33960518 -118.36414485 145.24413729 -118.37832069 136.14862633 C-118.39026774 128.40522331 -118.39160227 120.66190524 -118.37953053 112.91850098 C-118.37366503 108.97330997 -118.37247735 105.02827408 -118.38453293 101.08309364 C-118.3954707 97.4614112 -118.39219604 93.84001192 -118.37827124 90.21834228 C-118.37441591 88.30929875 -118.38510655 86.40024225 -118.39656812 84.49122924 C-118.24149595 59.34710467 -108.45524028 37.79466154 -91.125 19.8125 C-67.55697079 -3.11081109 -31.05576825 -11.00117226 0 0 Z " fill="#FEFEFE" transform="translate(2471,2062)"/>
<path d="M0 0 C18.08261898 15.24916016 30.25420005 36.16123297 33.4375 59.75 C33.57610988 62.92688171 33.56821666 66.09966075 33.55775452 69.27914429 C33.55903615 70.70791033 33.55903615 70.70791033 33.56034368 72.16554034 C33.56198909 75.35305522 33.55649247 78.54051732 33.55102539 81.72802734 C33.55074329 84.01459756 33.5509017 86.30116787 33.5514679 88.58773804 C33.55175498 94.79380431 33.54587259 100.99985128 33.53889394 107.20591307 C33.53264562 113.69217551 33.53205543 120.17843838 33.53086853 126.66470337 C33.52811288 137.55104924 33.52186529 148.43738798 33.51293945 159.32373047 C33.50375652 170.53531865 33.49667999 181.74690491 33.49243164 192.95849609 C33.49216892 193.64990273 33.49190619 194.34130936 33.49163551 195.05366771 C33.49033044 198.52234842 33.48906674 201.99102915 33.48782361 205.45970988 C33.47746161 234.22314547 33.45902902 262.9865704 33.4375 291.75 C13.3075 291.75 -6.8225 291.75 -27.5625 291.75 C-27.5718457 286.04146729 -27.58119141 280.33293457 -27.59082031 274.45141602 C-27.62457255 255.60005755 -27.67991073 236.74880826 -27.74640274 217.89753819 C-27.78619278 206.46692739 -27.8185855 195.03638545 -27.83349609 183.60571289 C-27.84651274 173.64141564 -27.87347788 163.67726987 -27.91711307 153.71305794 C-27.93972742 148.43825922 -27.95541068 143.16364734 -27.95438385 137.88879585 C-27.95363724 132.9204384 -27.97158893 127.95249397 -28.00366783 122.98424339 C-28.01216242 121.16424061 -28.01391976 119.34419149 -28.00830269 117.52417755 C-27.82452722 104.58517967 -27.82452722 104.58517967 -32.5625 92.75 C-32.93038761 92.10244027 -33.29827522 91.45488054 -33.67731094 90.78769779 C-37.82939747 83.69677707 -45.88017196 79.86360533 -53.5625 77.75 C-62.01862385 76.89744824 -69.25970105 77.22989233 -76.5625 81.75 C-77.25988281 82.1625 -77.95726563 82.575 -78.67578125 83 C-86.13826198 87.94687988 -90.28496059 95.04859959 -92.13950729 103.74207878 C-93.1155001 110.68240995 -92.87316331 117.75802644 -92.88134766 124.75415039 C-92.89065592 126.5781193 -92.90082592 128.40208399 -92.91178894 130.2260437 C-92.9390017 135.15716273 -92.95421242 140.08825332 -92.96721697 145.01942754 C-92.98288579 150.18041941 -93.00966401 155.34135355 -93.0352478 160.50230408 C-93.08196928 170.26616476 -93.11874545 180.03003637 -93.15192068 189.79395145 C-93.19018898 200.91369416 -93.23958678 212.03337879 -93.28990483 223.15307248 C-93.39312606 246.01867737 -93.48094929 268.88430684 -93.5625 291.75 C-113.6925 291.75 -133.8225 291.75 -154.5625 291.75 C-154.60666245 263.34165605 -154.64356318 234.93333896 -154.66463066 206.52496913 C-154.66713181 203.16451386 -154.66972048 199.80405867 -154.67236328 196.44360352 C-154.6728879 195.77464985 -154.67341252 195.10569618 -154.67395304 194.41647119 C-154.68263516 183.61132778 -154.69839293 172.80620585 -154.71680559 162.00107514 C-154.73556588 150.89863311 -154.74648011 139.79619979 -154.75067699 128.69374233 C-154.75327702 122.46415133 -154.75935863 116.23460889 -154.77396011 110.00503349 C-154.78761263 104.13231771 -154.79170722 98.25967014 -154.78871536 92.38694 C-154.78926211 90.24047283 -154.79319356 88.09400319 -154.80091095 85.94754982 C-154.85094058 71.30496199 -154.86028924 56.6747364 -149.9375 42.6875 C-149.55053955 41.56408203 -149.55053955 41.56408203 -149.15576172 40.41796875 C-140.31783347 15.89076257 -121.82237252 -2.38250737 -98.59375 -13.45703125 C-93.07533723 -15.98149527 -87.44700491 -17.78465802 -81.5625 -19.25 C-80.73363281 -19.47429687 -79.90476562 -19.69859375 -79.05078125 -19.9296875 C-51.07731246 -26.34118898 -22.06001414 -17.30862648 0 0 Z " fill="#00CE00" transform="translate(2305.5625,2026.25)"/>
<path d="M0 0 C21.78 0 43.56 0 66 0 C66 197.67 66 395.34 66 599 C44.22 599 22.44 599 0 599 C0 401.33 0 203.66 0 0 Z " fill="#FEFEFE" transform="translate(2828,1936)"/>
<path d="M0 0 C39.6 0 79.2 0 120 0 C121.37080769 32.33147848 121.37080769 32.33147848 121.0859375 44.11914062 C121.05622927 45.34953929 121.05622927 45.34953929 121.02592087 46.6047945 C120.32218684 71.38012164 116.3315352 95.82314304 112.46875 120.265625 C112.27640148 121.48280653 112.08405296 122.69998806 111.8858757 123.95405388 C109.46809962 139.19792317 106.96237556 154.42683964 104.42553043 169.65129042 C102.30224421 182.40405637 100.23380343 195.16549704 98.17172432 207.92828083 C95.53689066 224.2340215 92.89293797 240.53822028 90.21557617 256.83703613 C84.59957218 291.03165726 79.13059514 325.24702541 73.78125 359.484375 C73.6054497 360.60925355 73.42964939 361.7341321 73.2485218 362.89309788 C71.15961998 376.26112832 69.07861562 389.63036163 67 403 C84.49 403 101.98 403 120 403 C120 424.78 120 446.56 120 469 C80.4 469 40.8 469 0 469 C-1.37585052 435.45568724 -1.37585052 435.45568724 -1.09033203 423.36572266 C-1.07047186 422.52402881 -1.05061169 421.68233496 -1.0301497 420.81513524 C-0.3336074 395.74672855 3.65903273 371.024899 7.56640625 346.29296875 C7.75939914 345.07140532 7.95239203 343.84984189 8.1512332 342.59126139 C10.57327827 327.31862256 13.08605864 312.06144362 15.63101137 296.80886376 C17.76567665 284.0042247 19.84258923 271.19045366 21.91338277 258.37535453 C24.55075136 242.05692381 27.19830854 225.74021616 29.88247681 209.42941284 C30.08273346 208.2125175 30.28299011 206.99562217 30.48931515 205.74185121 C30.8919021 203.29574164 31.29449335 200.84963278 31.69708896 198.40352464 C36.97439369 166.33082526 42.06719834 134.23020053 47.10246611 102.11871386 C47.40841257 100.16763114 47.71445068 98.2165628 48.0205884 96.26551008 C48.71393152 91.84673155 49.40629779 87.42780763 50.09587669 83.00844002 C50.33654729 81.4712643 50.57724589 79.93409298 50.81797791 78.39692688 C50.92415627 77.71352539 51.03033463 77.0301239 51.13973051 76.32601327 C51.68356167 72.86077331 52.31153923 69.44230386 53 66 C35.51 66 18.02 66 0 66 C0 44.22 0 22.44 0 0 Z " fill="#00CE00" transform="translate(3183,2066)"/>
<path d="M0 0 C39.27 0 78.54 0 119 0 C119.68744679 36.98421002 119.68744679 36.98421002 119.53945923 48.20684814 C119.5242082 49.36523504 119.5242082 49.36523504 119.50864907 50.54702368 C119.12549886 75.13943314 115.30827069 99.20128904 111.220558 123.42154785 C110.03771835 130.44412835 108.91920825 137.47665126 107.80148289 144.50983699 C105.79488671 157.12627031 103.74319636 169.73488602 101.65991211 182.33886719 C99.67381302 194.35553812 97.70920826 206.37538667 95.77416992 218.40039062 C95.65484946 219.14184628 95.53552899 219.88330194 95.41259275 220.64722595 C94.8122019 224.37893862 94.21225336 228.11072225 93.61252952 231.84254217 C92.42928663 239.20459353 91.24308864 246.56616839 90.05569458 253.92755127 C89.93963935 254.64706291 89.82358411 255.36657454 89.70401205 256.10788956 C87.1085295 272.19403702 84.47899374 288.27457822 81.84521484 304.35449219 C76.46228715 337.22076188 71.2136518 370.1063288 66 403 C83.49 403 100.98 403 119 403 C119 424.78 119 446.56 119 469 C79.73 469 40.46 469 0 469 C-1.19874526 431.27132773 -1.19874526 431.27132773 -0.94775391 418.60986328 C-0.93034818 417.73089646 -0.91294245 416.85192963 -0.89500928 415.94632745 C-0.01651171 378.38950253 7.36091662 341.14021125 13.59350401 304.18471742 C15.54014944 292.62729496 17.41888152 281.05910901 19.29291332 269.48972654 C22.26794825 251.12745992 25.27503041 232.77072397 28.31458104 214.41903162 C32.11014103 191.50076758 35.81401066 168.56962758 39.421875 145.62109375 C39.53794845 144.88316141 39.65402191 144.14522907 39.77361274 143.38493514 C40.76579361 137.07681189 41.75674878 130.76849702 42.74512768 124.45977688 C44.8134584 111.2593931 46.90699912 98.0630572 49.00390625 84.8671875 C50.48697266 75.52792969 50.48697266 75.52792969 52 66 C34.84 66 17.68 66 0 66 C0 44.22 0 22.44 0 0 Z " fill="#00CE00" transform="translate(3322,2066)"/>
<path d="M0 0 C22.11 0 44.22 0 67 0 C67 154.77 67 309.54 67 469 C44.89 469 22.78 469 0 469 C0 314.23 0 159.46 0 0 Z " fill="#FEFEFE" transform="translate(2548,2066)"/>
<path d="M0 0 C21.78 0 43.56 0 66 0 C66 154.77 66 309.54 66 469 C44.22 469 22.44 469 0 469 C0 314.23 0 159.46 0 0 Z " fill="#00CE00" transform="translate(3099,2066)"/>
<path d="M0 0 C-1.0745681 3.22370429 -1.6055631 3.74568921 -4.125 5.8125 C-8.33153441 9.37594911 -12.3582883 13.1013154 -16.375 16.875 C-21.36032694 21.54874401 -26.38103265 26.17275011 -31.4765625 30.7265625 C-34.50878121 33.45837564 -37.50536647 36.22712701 -40.5 39 C-44.30979998 42.52701981 -48.1333759 46.03510308 -52 49.5 C-56.94864909 53.93616763 -61.82834772 58.44433834 -66.70703125 62.95703125 C-71.29570729 67.20071432 -75.90631603 71.42040541 -80.51611328 75.64111328 C-83.01164407 77.92642496 -85.50574527 80.2132958 -88 82.5 C-88.99999325 83.41667404 -89.99999324 84.3333407 -91 85.25 C-91.7425 85.930625 -91.7425 85.930625 -92.5 86.625 C-166.75 154.6875 -166.75 154.6875 -361 332.75 C-361.49564453 333.20439453 -361.99128906 333.65878906 -362.50195312 334.12695312 C-363.49522626 335.03734558 -364.48871353 335.94750448 -365.48242188 336.85742188 C-368.0872084 339.2431462 -370.68740531 341.63362996 -373.28125 344.03125 C-374.08949219 344.77665039 -374.08949219 344.77665039 -374.9140625 345.53710938 C-376.41257766 346.91936043 -377.90946469 348.30337595 -379.40625 349.6875 C-381.53975352 351.58965977 -383.67948463 353.33623426 -386 355 C-389.03726958 353.63389732 -391.20915026 352.06926193 -393.609375 349.76953125 C-394.28226563 349.13080078 -394.95515625 348.49207031 -395.6484375 347.83398438 C-396.68871094 346.83334961 -396.68871094 346.83334961 -397.75 345.8125 C-402.45322625 341.31939887 -407.19619253 336.9111743 -412.11132812 332.65014648 C-414.91829346 330.19768026 -417.64719725 327.66476684 -420.375 325.125 C-425.03833223 320.8013584 -429.73696176 316.52181547 -434.47265625 312.27734375 C-437.33082203 309.70190225 -440.16710261 307.10314236 -443 304.5 C-446.64927171 301.14706883 -450.31169598 297.81001643 -454 294.5 C-458.20684327 290.72462783 -462.37674853 286.91019552 -466.5390625 283.0859375 C-469.67667086 280.20577393 -472.83020941 277.34468386 -476 274.5 C-480.20684327 270.72462783 -484.37674853 266.91019552 -488.5390625 263.0859375 C-491.67667086 260.20577393 -494.83020941 257.34468386 -498 254.5 C-502.20684327 250.72462783 -506.37674853 246.91019552 -510.5390625 243.0859375 C-513.67667086 240.20577393 -516.83020941 237.34468386 -520 234.5 C-524.20684327 230.72462783 -528.37674853 226.91019552 -532.5390625 223.0859375 C-535.67667086 220.20577393 -538.83020941 217.34468386 -542 214.5 C-546.20684327 210.72462783 -550.37674853 206.91019552 -554.5390625 203.0859375 C-557.67667086 200.20577393 -560.83020941 197.34468386 -564 194.5 C-568.20684327 190.72462783 -572.37674853 186.91019552 -576.5390625 183.0859375 C-579.67667086 180.20577393 -582.83020941 177.34468386 -586 174.5 C-590.20684327 170.72462783 -594.37674853 166.91019552 -598.5390625 163.0859375 C-601.67667086 160.20577393 -604.83020941 157.34468386 -608 154.5 C-612.20684327 150.72462783 -616.37674853 146.91019552 -620.5390625 143.0859375 C-623.67667086 140.20577393 -626.83020941 137.34468386 -630 134.5 C-634.20684327 130.72462783 -638.37674853 126.91019552 -642.5390625 123.0859375 C-645.67667086 120.20577393 -648.83020941 117.34468386 -652 114.5 C-656.20684327 110.72462783 -660.37674853 106.91019552 -664.5390625 103.0859375 C-667.67667086 100.20577393 -670.83020941 97.34468386 -674 94.5 C-678.20684327 90.72462783 -682.37674853 86.91019552 -686.5390625 83.0859375 C-689.67667086 80.20577393 -692.83020941 77.34468386 -696 74.5 C-700.20684327 70.72462783 -704.37674853 66.91019552 -708.5390625 63.0859375 C-711.67667086 60.20577393 -714.83020941 57.34468386 -718 54.5 C-722.20684327 50.72462783 -726.37674853 46.91019552 -730.5390625 43.0859375 C-733.67667086 40.20577393 -736.83020941 37.34468386 -740 34.5 C-743.68830548 31.18998226 -747.35061053 27.85280417 -751 24.5 C-758.91258405 17.23375339 -766.88975019 10.04549634 -775 3 C-774.34 2.67 -773.68 2.34 -773 2 C-764.36780006 8.11154123 -755.81840651 14.32670667 -747.31323242 20.61376953 C-741.90028326 24.61087516 -736.46141091 28.56941639 -731 32.5 C-720.80637289 39.8399468 -710.7059823 47.30454712 -700.60449219 54.77050781 C-692.09906265 61.05501735 -683.58191379 67.32019635 -675 73.5 C-664.80658134 80.84024221 -654.70598709 88.30454358 -644.60449219 95.77050781 C-636.09906265 102.05501735 -627.58191379 108.32019635 -619 114.5 C-608.80658134 121.84024221 -598.70598709 129.30454358 -588.60449219 136.77050781 C-580.09906265 143.05501735 -571.58191379 149.32019635 -563 155.5 C-552.80658134 162.84024221 -542.70598709 170.30454358 -532.60449219 177.77050781 C-524.09906265 184.05501735 -515.58191379 190.32019635 -507 196.5 C-496.80658134 203.84024221 -486.70598709 211.30454358 -476.60449219 218.77050781 C-468.09906265 225.05501735 -459.58191379 231.32019635 -451 237.5 C-442.4266221 243.67365699 -433.9184806 249.93317243 -425.421875 256.21191406 C-422.94979373 258.03706762 -420.47528799 259.8588857 -418 261.6796875 C-417.17959229 262.28369385 -416.35918457 262.8877002 -415.51391602 263.51000977 C-413.89881467 264.69757009 -412.28215081 265.88300872 -410.66381836 267.06616211 C-407.16156009 269.63316032 -403.69244371 272.2176552 -400.31640625 274.94921875 C-399.76911865 275.38516357 -399.22183105 275.8211084 -398.65795898 276.27026367 C-397.24242987 277.40579802 -395.84307622 278.56141794 -394.4453125 279.71875 C-392.07965297 281.28735302 -392.07965297 281.28735302 -389.5390625 280.4921875 C-386.56261592 278.74295274 -383.94665011 276.78371731 -381.25 274.625 C-376.20933414 270.65266089 -371.07086284 266.86659656 -365.8125 263.1875 C-359.86466997 259.02113266 -353.94525864 254.82035671 -348.0625 250.5625 C-347.31653564 250.02262451 -346.57057129 249.48274902 -345.80200195 248.92651367 C-344.28986573 247.83161956 -342.77790301 246.73648578 -341.26611328 245.64111328 C-337.513552 242.92351827 -333.75656581 240.21205527 -330 237.5 C-328.49997854 236.41669638 -326.99997854 235.33336304 -325.5 234.25 C-280.5 201.75 -280.5 201.75 -278.25024414 200.12524414 C-276.7493445 199.04121584 -275.24853078 197.95706858 -273.74780273 196.87280273 C-270.01226033 194.17412345 -266.27527746 191.47748688 -262.53515625 188.78515625 C-254.74084153 183.17096822 -246.975464 177.52114617 -239.25 171.8125 C-232.73277127 166.99713071 -226.17886685 162.24135527 -219.57421875 157.546875 C-215.45110426 154.61457267 -211.35034806 151.65151724 -207.25 148.6875 C-206.49195068 148.13956787 -205.73390137 147.59163574 -204.95288086 147.02709961 C-203.40666903 145.90927547 -201.86052687 144.79135496 -200.31445312 143.67333984 C-196.54406981 140.94736861 -192.77196306 138.22378466 -189 135.5 C-187.49999141 134.41667856 -185.99999142 133.33334521 -184.5 132.25 C-49.5 34.75 -49.5 34.75 -47.24951172 33.12475586 C-45.75100194 32.04242651 -44.2526293 30.95990726 -42.75439453 29.87719727 C-38.98270148 27.15192156 -35.20861023 24.43008763 -31.4296875 21.71484375 C-29.91130256 20.62261236 -28.39307232 19.53016586 -26.875 18.4375 C-25.77091797 17.64339722 -25.77091797 17.64339722 -24.64453125 16.83325195 C-20.85926643 14.10070132 -17.10308071 11.33615871 -13.3828125 8.515625 C-12.27703857 7.67753296 -12.27703857 7.67753296 -11.14892578 6.82250977 C-9.74538894 5.75462903 -8.34516128 4.68238101 -6.94873047 3.60522461 C-2.2172942 0 -2.2172942 0 0 0 Z " fill="#FDFDFD" transform="translate(1864,2302)"/>
<path d="M0 0 C22.11 0 44.22 0 67 0 C67.03738281 10.02503906 67.07476563 20.05007812 67.11328125 30.37890625 C67.14355456 36.72722741 67.17457641 43.07553026 67.20898438 49.42382812 C67.26346725 59.50169215 67.31488034 69.57950532 67.34643555 79.6574707 C67.36943148 86.99731587 67.40284729 94.33702755 67.44870156 101.67676681 C67.47261235 105.56201806 67.49135513 109.44713729 67.49761391 113.3324604 C67.50367453 116.99247595 67.52370928 120.65215377 67.55427551 124.31204414 C67.56720662 126.28948153 67.56548848 128.26699789 67.5632782 130.24447632 C67.64161521 137.66450135 67.82050194 143.42306468 72.9375 149.1796875 C73.618125 149.73914062 74.29875 150.29859375 75 150.875 C75.680625 151.44992188 76.36125 152.02484375 77.0625 152.6171875 C81.99954679 156.14080557 88.20955599 155.52840554 94 155 C99.36264455 153.41106828 102.97961409 150.76291624 106 146 C107.79262841 142.21681517 108.25617568 139.21911933 108.2784729 135.04582214 C108.28963638 133.8525531 108.30079987 132.65928406 108.31230164 131.42985535 C108.31446182 130.12937759 108.31662201 128.82889984 108.31884766 127.48901367 C108.32815059 126.09912536 108.33831981 124.70924262 108.34928894 123.31936646 C108.37656195 119.55326552 108.39173031 115.78720194 108.40471697 112.02102828 C108.42035934 108.0825229 108.44714603 104.14409366 108.4727478 100.2056427 C108.51951601 92.75077676 108.55626959 85.29589647 108.58942068 77.84095889 C108.63480687 67.7648756 108.69567229 57.68888657 108.75566864 47.61288166 C108.84976216 31.74196838 108.92318188 15.87102807 109 0 C131.44 0 153.88 0 177 0 C177.08060607 32.16629942 177.08060607 32.16629942 177.09765625 45.73632812 C177.10948309 55.07367166 177.1233197 64.41097888 177.15087891 73.74829102 C177.1709482 80.55125381 177.1837482 87.35418688 177.18817699 94.15717846 C177.1907617 97.75213084 177.19674285 101.34699827 177.21146011 104.94192314 C177.33180374 135.599844 175.84371173 161.58922008 155 186 C154.36320312 186.82886719 153.72640625 187.65773438 153.0703125 188.51171875 C139.75050841 204.52061536 118.37726594 213.93248338 98 216 C73.5709066 217.71058194 51.57161979 212.51638016 32.3515625 196.83984375 C13.70580878 180.57500935 1.60492378 160.41501356 -0.26817894 135.42160225 C-0.36418126 131.78991549 -0.37202742 128.17014839 -0.34057617 124.53735352 C-0.33972684 123.16570047 -0.34021099 121.79404606 -0.34190369 120.4223938 C-0.34275314 116.75178734 -0.32530097 113.08148401 -0.30418181 109.41094708 C-0.28523669 105.55530728 -0.2836507 101.69965806 -0.28010559 97.84397888 C-0.27083688 90.56643121 -0.2462944 83.28902116 -0.21605712 76.01153368 C-0.17602945 66.16071676 -0.16001635 56.30986134 -0.14255047 46.45898342 C-0.11446857 30.97255283 -0.05466507 15.48641245 0 0 Z " fill="#FEFEFE" transform="translate(2158,2328)"/>
<path d="M0 0 C5.3044522 1.64109799 9.32032553 5.0114403 13.6875 8.3125 C15.39914821 9.59063608 17.11140197 10.86796157 18.82421875 12.14453125 C20.12238525 13.11447021 20.12238525 13.11447021 21.44677734 14.10400391 C25.26930346 16.9425713 29.13285949 19.72269 33 22.5 C43.19442036 29.83882166 53.29403624 37.30456082 63.39550781 44.77050781 C71.90093735 51.05501735 80.41808621 57.32019635 89 63.5 C99.19341866 70.84024221 109.29401291 78.30454358 119.39550781 85.77050781 C127.90093735 92.05501735 136.41808621 98.32019635 145 104.5 C155.19341866 111.84024221 165.29401291 119.30454358 175.39550781 126.77050781 C183.90093735 133.05501735 192.41808621 139.32019635 201 145.5 C211.19341866 152.84024221 221.29401291 160.30454358 231.39550781 167.77050781 C240.63804661 174.59965419 249.9038828 181.3920693 259.23071289 188.10571289 C265.4862521 192.61431413 271.69318346 197.18680605 277.89453125 201.76953125 C283.23857821 205.71415511 288.60918549 209.61958115 294 213.5 C304.19356463 220.84003533 314.29401627 228.30454606 324.39550781 235.77050781 C332.90093817 242.05501796 341.41812195 248.32014564 350 254.5 C356.46232547 259.15402065 362.89848079 263.84209787 369.3125 268.5625 C370.10720703 269.14644531 370.90191406 269.73039062 371.72070312 270.33203125 C372.46900391 270.88375 373.21730469 271.43546875 373.98828125 272.00390625 C374.69033691 272.51840332 375.39239258 273.03290039 376.11572266 273.56298828 C378 275 378 275 380.73046875 277.46484375 C381.47941406 277.97144531 382.22835938 278.47804688 383 279 C384.65 278.67 386.3 278.34 388 278 C388 302.42 388 326.84 388 352 C384.76613714 350.38306857 383.10390704 349.37050879 380.609375 346.98828125 C379.98659668 346.39901855 379.36381836 345.80975586 378.72216797 345.20263672 C378.07135254 344.5788916 377.42053711 343.95514648 376.75 343.3125 C375.39407871 342.02904981 374.03731778 340.74648604 372.6796875 339.46484375 C372.03612305 338.85624512 371.39255859 338.24764648 370.72949219 337.62060547 C368.81523616 335.82686866 366.86342645 334.08607083 364.875 332.375 C360.79716368 328.86451482 356.86574736 325.20150074 352.91967773 321.54467773 C348.82251649 317.75070287 344.68563517 314.00430511 340.52734375 310.27734375 C337.66917797 307.70190225 334.83289739 305.10314236 332 302.5 C328.35072829 299.14706883 324.68830402 295.81001643 321 292.5 C316.79315673 288.72462783 312.62325147 284.91019552 308.4609375 281.0859375 C305.32332914 278.20577393 302.16979059 275.34468386 299 272.5 C294.79315673 268.72462783 290.62325147 264.91019552 286.4609375 261.0859375 C283.32332914 258.20577393 280.16979059 255.34468386 277 252.5 C272.79315673 248.72462783 268.62325147 244.91019552 264.4609375 241.0859375 C261.32332914 238.20577393 258.16979059 235.34468386 255 232.5 C250.79315673 228.72462783 246.62325147 224.91019552 242.4609375 221.0859375 C239.32332914 218.20577393 236.16979059 215.34468386 233 212.5 C228.79315673 208.72462783 224.62325147 204.91019552 220.4609375 201.0859375 C217.32332914 198.20577393 214.16979059 195.34468386 211 192.5 C206.79315673 188.72462783 202.62325147 184.91019552 198.4609375 181.0859375 C195.32332914 178.20577393 192.16979059 175.34468386 189 172.5 C184.79315673 168.72462783 180.62325147 164.91019552 176.4609375 161.0859375 C173.32332914 158.20577393 170.16979059 155.34468386 167 152.5 C162.79315673 148.72462783 158.62325147 144.91019552 154.4609375 141.0859375 C151.32332914 138.20577393 148.16979059 135.34468386 145 132.5 C140.79315673 128.72462783 136.62325147 124.91019552 132.4609375 121.0859375 C129.32332914 118.20577393 126.16979059 115.34468386 123 112.5 C118.79315673 108.72462783 114.62325147 104.91019552 110.4609375 101.0859375 C107.32332914 98.20577393 104.16979059 95.34468386 101 92.5 C96.79315673 88.72462783 92.62325147 84.91019552 88.4609375 81.0859375 C85.32332914 78.20577393 82.16979059 75.34468386 79 72.5 C74.79315673 68.72462783 70.62325147 64.91019552 66.4609375 61.0859375 C63.32332914 58.20577393 60.16979059 55.34468386 57 52.5 C52.79315673 48.72462783 48.62325147 44.91019552 44.4609375 41.0859375 C41.32332914 38.20577393 38.16979059 35.34468386 35 32.5 C31.31169452 29.18998226 27.64938947 25.85280417 24 22.5 C16.55774718 15.66566573 9.08374889 8.87387257 1.3984375 2.3125 C0.93695312 1.879375 0.47546875 1.44625 0 1 C0 0.67 0 0.34 0 0 Z " fill="#00CD00" transform="translate(1089,2304)"/>
<path d="M0 0 C22.11 0 44.22 0 67 0 C67 22.77 67 45.54 67 69 C44.89 69 22.78 69 0 69 C0 46.23 0 23.46 0 0 Z " fill="#FEFEFE" transform="translate(2548,1951)"/>
<path d="M0 0 C21.78 0 43.56 0 66 0 C66 22.77 66 45.54 66 69 C44.22 69 22.44 69 0 69 C0 46.23 0 23.46 0 0 Z " fill="#00CE00" transform="translate(3099,1951)"/>
</svg>
